<svg width="182" height="23" viewBox="0 0 182 23" fill="none" xmlns="http://www.w3.org/2000/svg">
<path d="M59.06 4.10004V16.52C59.06 18.65 57.34 20.37 55.21 20.37H43.22C41.09 20.37 39.37 18.65 39.37 16.52V4.10004C39.37 1.97004 41.1 0.25 43.22 0.25H55.21C57.34 0.25 59.06 1.97004 59.06 4.10004ZM55.44 4.53003C55.44 4.04003 55.04 3.67004 54.58 3.67004H43.86C43.4 3.67004 43.03 4.04003 43.03 4.53003V16.09C43.03 16.58 43.4 16.95 43.86 16.95H54.58C55.04 16.95 55.44 16.58 55.44 16.09V4.53003Z" fill="#0E0E0E"/>
<path d="M66.02 16.95H77.35V20.37H62.37V0.25H66.02V16.95Z" fill="#0E0E0E"/>
<path d="M73.8099 0.25H91.8099V3.67004H84.6199V20.37H80.9699V3.67004H73.8099V0.25Z" fill="#0E0E0E"/>
<path d="M102.13 0.25L111.1 20.37H107.48L105.27 15.45H94.69L92.51 20.37H88.86L97.86 0.25H102.14H102.13ZM103.74 12.04L99.97 3.62L96.2 12.04H103.73H103.74Z" fill="#0E0E0E"/>
<path d="M128.43 0.25H132.05V16.52C132.05 18.65 130.33 20.37 128.2 20.37H116.21C114.08 20.37 112.36 18.65 112.36 16.52V0.25H116.01V16.09C116.01 16.58 116.38 16.95 116.84 16.95H127.56C128.02 16.95 128.42 16.58 128.42 16.09V0.25H128.43Z" fill="#0E0E0E"/>
<path d="M154.94 6.25977V14.3698C154.94 17.6998 152.24 20.3798 148.93 20.3798H135.45V0.259766H148.93C152.24 0.259766 154.94 2.92978 154.94 6.26978V6.25977ZM151.29 6.65979C151.29 5.01979 149.94 3.6698 148.3 3.6698H139.1V16.9498H148.3C149.94 16.9498 151.29 15.5998 151.29 13.9598V6.65979Z" fill="#0E0E0E"/>
<path d="M157.99 20.37V0.25H161.64V20.37H157.99Z" fill="#0E0E0E"/>
<path d="M163.42 0.25H181.42V3.67004H174.23V20.37H170.58V3.67004H163.42V0.25Z" fill="#0E0E0E"/>
<path d="M37.1199 4.07001C37.1199 1.82001 35.2999 0 33.0499 0H21.4499L19.4699 3.66003H30.7499C31.3799 3.66003 31.8999 4.17 31.8999 4.81V5.43005C31.8999 6.80005 30.7899 7.90002 29.4299 7.90002H25.9499L22.9199 11.5H28.8599C29.5299 11.5 30.0799 12.05 30.0799 12.72V15C30.0799 16.32 29.0099 17.38 27.6999 17.38H17.9799L15.1699 20.72H27.2799C31.4899 20.72 34.9099 17.3 34.9099 13.09C34.9099 11.32 33.5799 9.89005 31.8699 9.68005C34.8099 9.49005 37.1399 7.06001 37.1399 4.07001H37.1199Z" fill="#0E0E0E"/>
<path d="M25.09 7.88H20.91L23.5 4.36005H18.31L20.7 0L6.92 2.53003H18.53L17.88 3.28003L11.9 4.51001H16.83L15.86 5.63L0 7.90002H13.92H18.05L16.89 9.66003L7.31 11.04L15.71 11.46L15.13 12.35H17.78L15.3 17.25L7.88 18.2401L14.55 18.71L12.38 22.9901L25.09 7.88Z" fill="#E05F1B"/>
<path d="M16.6399 13.1299L0.279907 14.5399L15.4399 15.4999L16.6399 13.1299Z" fill="#E05F1B"/>
</svg>
